<?xml version="1.0" standalone="no"?>
<!DOCTYPE svg PUBLIC "-//W3C//DTD SVG 20010904//EN"
 "http://www.w3.org/TR/2001/REC-SVG-20010904/DTD/svg10.dtd">
<svg version="1.0" xmlns="http://www.w3.org/2000/svg"
 width="600.000000pt" height="600.000000pt" viewBox="0 0 600.000000 600.000000"
 preserveAspectRatio="xMidYMid meet">
<metadata>
Created by potrace 1.15, written by Peter Selinger 2001-2017
</metadata>
<g transform="translate(0.000000,600.000000) scale(0.100000,-0.100000)"
fill="#fff" stroke="none">
<path d="M0 5700 c0 -233 3 -300 13 -300 39 -2 4854 584 4862 591 5 5 -1081 9
-2433 9 l-2442 0 0 -300z"/>
<path d="M5400 5988 c-1 -42 585 -4855 592 -4863 4 -5 8 1090 8 2433 l0 2442
-300 0 c-233 0 -300 -3 -300 -12z"/>
<path d="M0 2442 l0 -2442 300 0 c233 0 300 3 300 13 2 40 -584 4854 -591
4862 -5 5 -9 -1087 -9 -2433z"/>
<path d="M1313 4753 c3 -71 18 -438 33 -818 15 -379 27 -691 28 -691 1 -1 71
7 156 17 130 15 620 44 626 36 4 -6 58 -772 69 -982 8 -157 52 -1110 61 -1292
l6 -143 627 0 628 0 11 202 c7 112 30 523 52 913 40 710 77 1269 85 1293 8 23
512 -3 722 -36 l51 -9 6 106 c4 58 20 403 36 766 16 363 31 684 32 713 l3 52
-1619 0 -1619 0 6 -127z"/>
<path d="M3533 307 c-1321 -161 -2405 -295 -2409 -300 -4 -4 1091 -7 2434 -7
l2442 0 0 300 0 300 -32 -1 c-18 -1 -1114 -132 -2435 -292z"/>
</g>
</svg>
