<?xml version="1.0" standalone="no"?>
<!DOCTYPE svg PUBLIC "-//W3C//DTD SVG 20010904//EN"
 "http://www.w3.org/TR/2001/REC-SVG-20010904/DTD/svg10.dtd">
<svg version="1.0" xmlns="http://www.w3.org/2000/svg"
 width="600.000000pt" height="600.000000pt" viewBox="0 0 600.000000 600.000000"
 preserveAspectRatio="xMidYMid meet">
<metadata>
Created by potrace 1.15, written by Peter Selinger 2001-2017
</metadata>
<g transform="translate(0.000000,600.000000) scale(0.100000,-0.100000)"
fill="#fff" stroke="none">
<path d="M0 5700 l0 -301 33 6 c17 3 1112 136 2432 295 1320 159 2409 291
2420 294 11 2 -1084 4 -2432 5 l-2453 1 0 -300z"/>
<path d="M5405 5973 c3 -16 136 -1110 295 -2433 160 -1323 292 -2414 294
-2425 2 -11 4 1084 5 2433 l1 2452 -300 0 -299 0 4 -27z"/>
<path d="M2835 5325 c-247 -30 -453 -54 -457 -54 -5 -1 -8 -136 -8 -301 l0
-300 -200 0 -200 0 0 -305 0 -305 199 0 200 0 4 -1057 c4 -916 6 -1070 20
-1148 47 -263 105 -382 257 -535 218 -218 493 -311 935 -313 167 -1 234 8 448
60 l147 37 0 298 0 298 -22 -5 c-13 -3 -43 -9 -68 -15 -87 -20 -289 -23 -368
-6 -193 41 -291 133 -345 323 -22 78 -22 81 -25 1071 l-3 992 381 0 380 0 0
305 0 305 -380 0 -380 0 0 355 0 355 -32 -1 c-18 -1 -235 -25 -483 -54z"/>
<path d="M1 2453 l-1 -2453 300 0 301 0 -6 33 c-3 17 -136 1112 -295 2432
-159 1320 -291 2409 -294 2420 -2 11 -4 -1084 -5 -2432z"/>
<path d="M3570 304 c-1328 -161 -2428 -295 -2445 -297 -16 -2 1074 -5 2423 -5
l2452 -2 0 300 c0 165 -3 300 -7 299 -5 -1 -1095 -133 -2423 -295z"/>
</g>
</svg>
