<?xml version="1.0" standalone="no"?>
<!DOCTYPE svg PUBLIC "-//W3C//DTD SVG 20010904//EN"
 "http://www.w3.org/TR/2001/REC-SVG-20010904/DTD/svg10.dtd">
<svg version="1.0" xmlns="http://www.w3.org/2000/svg"
 width="600.000000pt" height="600.000000pt" viewBox="0 0 600.000000 600.000000"
 preserveAspectRatio="xMidYMid meet">
<metadata>
Created by potrace 1.11, written by Peter Selinger 2001-2013
</metadata>
<g transform="translate(0.000000,600.000000) scale(0.100000,-0.100000)"
fill="#000000" stroke="none">
<path d="M2705 5735 c-1188 -144 -2283 -277 -2432 -295 l-273 -33 0 -251 0
-252 295 -2438 c162 -1341 295 -2445 295 -2452 0 -12 45 -14 255 -14 l256 0
2438 295 c1341 162 2443 295 2450 295 8 0 11 72 11 255 l0 255 -295 2438
c-162 1342 -295 2444 -295 2450 0 9 -71 12 -272 11 l-273 -1 -2160 -263z m655
-700 l0 -355 380 0 380 0 0 -315 0 -315 -380 0 -381 0 3 -982 c3 -980 3 -983
25 -1061 54 -190 152 -282 345 -323 85 -19 261 -13 368 11 36 8 71 14 78 15 9
0 12 -68 12 -308 l0 -308 -147 -37 c-217 -53 -281 -61 -458 -60 -451 2 -725
93 -945 313 -152 153 -210 272 -257 535 -14 78 -16 232 -20 1148 l-4 1057
-200 0 -199 0 2 313 3 312 198 3 197 2 0 300 c0 165 3 300 8 301 4 0 210 24
457 54 248 29 469 53 493 54 l42 1 0 -355z"/>
</g>
</svg>
