<?xml version="1.0" standalone="no"?>
<!DOCTYPE svg PUBLIC "-//W3C//DTD SVG 20010904//EN"
 "http://www.w3.org/TR/2001/REC-SVG-20010904/DTD/svg10.dtd">
<svg version="1.0" xmlns="http://www.w3.org/2000/svg"
 width="600.000000pt" height="600.000000pt" viewBox="0 0 600.000000 600.000000"
 preserveAspectRatio="xMidYMid meet">
<metadata>
Created by potrace 1.11, written by Peter Selinger 2001-2013
</metadata>
<g transform="translate(0.000000,600.000000) scale(0.100000,-0.100000)"
fill="#000000" stroke="none">
<path d="M4859 5996 c-2 -2 -36 -7 -75 -10 -40 -3 -78 -8 -85 -10 -8 -3 -39
-7 -69 -10 -30 -3 -275 -32 -545 -64 -269 -33 -497 -60 -505 -60 -8 -1 -62 -7
-120 -15 -58 -8 -127 -17 -155 -20 -27 -3 -125 -15 -218 -27 -92 -11 -173 -20
-180 -19 -6 1 -19 0 -27 -4 -13 -4 -451 -59 -592 -73 -24 -2 -353 -42 -733
-88 -379 -47 -717 -87 -750 -91 -33 -3 -69 -8 -80 -10 -11 -2 -42 -6 -70 -9
-27 -3 -123 -15 -212 -26 -90 -11 -166 -19 -170 -18 -5 1 -21 -1 -38 -5 -16
-4 -55 -9 -85 -12 -30 -3 -77 -8 -103 -11 l-49 -7 6 -306 c6 -320 9 -382 19
-398 3 -5 8 -40 12 -79 3 -38 37 -323 75 -634 38 -311 69 -572 68 -580 0 -8 2
-22 5 -30 3 -8 8 -40 10 -70 3 -30 12 -111 21 -180 8 -69 17 -145 20 -170 3
-25 10 -80 16 -123 6 -43 10 -85 9 -95 -1 -9 1 -24 4 -32 3 -8 8 -37 11 -65 4
-46 29 -254 41 -350 10 -79 114 -941 119 -985 3 -25 12 -99 20 -165 8 -66 17
-138 20 -160 2 -22 10 -82 16 -133 6 -52 9 -96 6 -99 -3 -4 -1 -11 4 -18 5 -6
12 -45 14 -86 3 -41 7 -81 10 -89 4 -13 9 -54 31 -250 3 -25 9 -79 14 -120 5
-41 10 -82 10 -90 1 -8 4 -34 7 -57 l6 -43 254 0 c269 0 254 -1 998 90 136 17
253 30 260 29 6 -1 18 0 26 4 8 3 65 11 125 17 61 7 124 14 140 16 77 9 285
35 330 40 28 3 80 10 118 15 37 5 70 8 75 7 4 -1 21 1 37 5 17 4 55 9 85 12
30 2 125 13 210 24 85 11 164 21 175 21 11 0 85 9 164 20 79 11 153 19 165 19
12 0 48 5 81 10 33 6 87 13 120 16 33 3 147 16 254 30 107 14 200 24 205 23 6
-1 22 2 36 5 14 3 48 8 75 11 77 9 227 26 261 31 50 7 278 33 294 34 8 0 42 5
75 11 33 5 87 12 120 15 33 3 148 16 255 30 107 14 200 24 205 23 6 -1 21 2
35 5 14 4 48 9 75 11 28 2 74 7 103 11 l54 8 -6 306 c-3 168 -8 326 -11 351
-3 25 -17 128 -30 230 -14 102 -27 212 -29 245 -2 33 -7 67 -9 75 -5 14 -24
169 -33 270 -3 25 -13 113 -24 195 -11 83 -19 157 -18 165 2 8 -1 20 -4 26 -4
6 -9 45 -12 87 -2 42 -7 80 -10 85 -2 4 -7 39 -10 78 -2 38 -7 76 -10 84 -2 8
-7 47 -11 87 -3 40 -7 78 -10 85 -2 7 -6 38 -9 68 -2 30 -14 127 -25 215 -11
88 -20 169 -20 180 0 11 -7 65 -15 120 -8 55 -17 125 -20 155 -4 30 -31 255
-61 500 -29 245 -56 468 -59 495 -3 28 -12 102 -20 165 -8 63 -17 135 -20 160
-2 25 -14 121 -26 214 -11 92 -19 171 -16 173 3 3 1 13 -3 22 -5 9 -11 46 -15
84 -3 37 -8 77 -10 90 -3 12 -7 47 -10 77 -3 30 -9 89 -15 130 -11 83 -20 158
-20 178 -1 9 -63 12 -274 12 -151 0 -276 -2 -278 -4z"/>
</g>
</svg>
