<?xml version="1.0" standalone="no"?>
<!DOCTYPE svg PUBLIC "-//W3C//DTD SVG 20010904//EN"
 "http://www.w3.org/TR/2001/REC-SVG-20010904/DTD/svg10.dtd">
<svg version="1.0" xmlns="http://www.w3.org/2000/svg"
 width="600.000000pt" height="600.000000pt" viewBox="0 0 600.000000 600.000000"
 preserveAspectRatio="xMidYMid meet">
<metadata>
Created by potrace 1.11, written by Peter Selinger 2001-2013
</metadata>
<g transform="translate(0.000000,600.000000) scale(0.100000,-0.100000)"
fill="#000000" stroke="none">
<path d="M2705 5735 c-1188 -144 -2283 -277 -2432 -295 l-273 -33 0 -251 0
-252 295 -2438 c162 -1341 295 -2445 295 -2452 0 -12 45 -14 255 -14 l256 0
2438 295 c1341 162 2443 295 2450 295 8 0 11 72 11 255 l0 255 -295 2438
c-162 1342 -295 2444 -295 2450 0 9 -71 12 -272 11 l-273 -1 -2160 -263z m637
-712 l3 -358 383 -3 382 -2 -2 -298 -3 -297 -382 -3 -383 -2 0 -909 c0 -562 4
-948 10 -1011 13 -118 47 -235 88 -300 52 -82 151 -143 277 -171 81 -17 273
-15 365 5 41 9 81 16 88 16 9 0 12 -65 12 -289 l0 -290 -57 -16 c-226 -66
-398 -89 -603 -82 -401 14 -649 100 -854 296 -163 157 -235 312 -271 589 -12
94 -15 290 -15 1138 l0 1024 -200 0 -200 0 0 300 0 300 198 2 197 3 3 303 c2
279 4 302 20 302 12 1 890 103 934 109 4 1 9 -160 10 -356z"/>
</g>
</svg>
